<mxfile host="app.diagrams.net" modified="2023-09-08T17:25:14.485Z" agent="Mozilla/5.0 (Windows NT 10.0; Win64; x64; rv:109.0) Gecko/20100101 Firefox/116.0" etag="BmvX6-uvCxExspfx4HaT" version="21.5.0" type="device">
  <diagram id="VIAb_6y9v0oeqei7CUIl" name="Страница 1">
    <mxGraphModel dx="1434" dy="782" grid="1" gridSize="10" guides="1" tooltips="1" connect="1" arrows="1" fold="1" page="1" pageScale="1" pageWidth="1169" pageHeight="827" math="0" shadow="0">
      <root>
        <mxCell id="0" />
        <mxCell id="1" parent="0" />
        <mxCell id="Ou0Bo5Lg-RuzPAXA64Kz-1" value="&lt;div&gt;Администратор&lt;/div&gt;&lt;div&gt;&lt;br&gt;&lt;/div&gt;" style="shape=umlActor;verticalLabelPosition=bottom;verticalAlign=top;html=1;outlineConnect=0;" parent="1" vertex="1">
          <mxGeometry x="400" y="380" width="30" height="60" as="geometry" />
        </mxCell>
        <mxCell id="Ou0Bo5Lg-RuzPAXA64Kz-2" value="" style="shape=umlActor;verticalLabelPosition=bottom;verticalAlign=top;html=1;outlineConnect=0;" parent="1" vertex="1">
          <mxGeometry x="400" y="380" width="30" height="60" as="geometry" />
        </mxCell>
        <mxCell id="Ou0Bo5Lg-RuzPAXA64Kz-5" value="Аутифицированный" style="shape=umlActor;verticalLabelPosition=bottom;verticalAlign=top;html=1;outlineConnect=0;" parent="1" vertex="1">
          <mxGeometry x="400" y="260" width="30" height="60" as="geometry" />
        </mxCell>
        <mxCell id="Ou0Bo5Lg-RuzPAXA64Kz-7" value="Пользователь&lt;br&gt;" style="shape=umlActor;verticalLabelPosition=bottom;verticalAlign=top;html=1;outlineConnect=0;" parent="1" vertex="1">
          <mxGeometry x="400" y="140" width="30" height="60" as="geometry" />
        </mxCell>
        <mxCell id="Ou0Bo5Lg-RuzPAXA64Kz-11" value="" style="endArrow=block;html=1;rounded=0;startFill=0;endFill=0;exitX=0.5;exitY=0;exitDx=0;exitDy=0;exitPerimeter=0;" parent="1" source="Ou0Bo5Lg-RuzPAXA64Kz-2" edge="1">
          <mxGeometry width="50" height="50" relative="1" as="geometry">
            <mxPoint x="390" y="430" as="sourcePoint" />
            <mxPoint x="415" y="340" as="targetPoint" />
          </mxGeometry>
        </mxCell>
        <mxCell id="Ou0Bo5Lg-RuzPAXA64Kz-12" value="" style="endArrow=block;html=1;rounded=0;startFill=0;endFill=0;exitX=0.5;exitY=0;exitDx=0;exitDy=0;exitPerimeter=0;" parent="1" edge="1">
          <mxGeometry width="50" height="50" relative="1" as="geometry">
            <mxPoint x="414.5" y="260" as="sourcePoint" />
            <mxPoint x="414.5" y="220" as="targetPoint" />
          </mxGeometry>
        </mxCell>
        <mxCell id="Ou0Bo5Lg-RuzPAXA64Kz-16" value="Вход" style="ellipse;whiteSpace=wrap;html=1;" parent="1" vertex="1">
          <mxGeometry x="245" y="130" width="70" height="30" as="geometry" />
        </mxCell>
        <mxCell id="Ou0Bo5Lg-RuzPAXA64Kz-17" value="Регестрация" style="ellipse;whiteSpace=wrap;html=1;" parent="1" vertex="1">
          <mxGeometry x="240" y="90" width="80" height="30" as="geometry" />
        </mxCell>
        <mxCell id="Ou0Bo5Lg-RuzPAXA64Kz-18" value="" style="endArrow=none;html=1;rounded=0;entryX=0.25;entryY=0.1;entryDx=0;entryDy=0;entryPerimeter=0;" parent="1" edge="1">
          <mxGeometry width="50" height="50" relative="1" as="geometry">
            <mxPoint x="315" y="146" as="sourcePoint" />
            <mxPoint x="399.5" y="146" as="targetPoint" />
          </mxGeometry>
        </mxCell>
        <mxCell id="Ou0Bo5Lg-RuzPAXA64Kz-19" value="" style="endArrow=none;html=1;rounded=0;entryX=0.5;entryY=0;entryDx=0;entryDy=0;entryPerimeter=0;exitX=1;exitY=0.5;exitDx=0;exitDy=0;" parent="1" source="Ou0Bo5Lg-RuzPAXA64Kz-17" edge="1">
          <mxGeometry width="50" height="50" relative="1" as="geometry">
            <mxPoint x="327" y="106" as="sourcePoint" />
            <mxPoint x="407" y="136" as="targetPoint" />
            <Array as="points">
              <mxPoint x="407" y="106" />
            </Array>
          </mxGeometry>
        </mxCell>
        <mxCell id="Ou0Bo5Lg-RuzPAXA64Kz-24" value="Просмотр книг" style="ellipse;whiteSpace=wrap;html=1;" parent="1" vertex="1">
          <mxGeometry x="500" y="90" width="100" height="40" as="geometry" />
        </mxCell>
        <mxCell id="Ou0Bo5Lg-RuzPAXA64Kz-25" value="" style="endArrow=none;html=1;rounded=0;entryX=0.5;entryY=0;entryDx=0;entryDy=0;entryPerimeter=0;" parent="1" edge="1">
          <mxGeometry width="50" height="50" relative="1" as="geometry">
            <mxPoint x="499" y="106" as="sourcePoint" />
            <mxPoint x="422" y="136" as="targetPoint" />
            <Array as="points">
              <mxPoint x="422" y="106" />
            </Array>
          </mxGeometry>
        </mxCell>
        <mxCell id="Ou0Bo5Lg-RuzPAXA64Kz-26" value="" style="endArrow=none;dashed=1;html=1;rounded=0;startArrow=open;startFill=0;" parent="1" edge="1">
          <mxGeometry width="50" height="50" relative="1" as="geometry">
            <mxPoint x="150" y="200" as="sourcePoint" />
            <mxPoint x="239" y="103" as="targetPoint" />
            <Array as="points">
              <mxPoint x="150" y="103" />
            </Array>
          </mxGeometry>
        </mxCell>
        <mxCell id="Ou0Bo5Lg-RuzPAXA64Kz-27" value="" style="endArrow=none;dashed=1;html=1;rounded=0;startArrow=open;startFill=0;" parent="1" edge="1">
          <mxGeometry width="50" height="50" relative="1" as="geometry">
            <mxPoint x="195" y="200" as="sourcePoint" />
            <mxPoint x="245" y="145" as="targetPoint" />
            <Array as="points">
              <mxPoint x="195" y="145" />
            </Array>
          </mxGeometry>
        </mxCell>
        <mxCell id="Ou0Bo5Lg-RuzPAXA64Kz-28" value="Подтверждение почты" style="ellipse;whiteSpace=wrap;html=1;" parent="1" vertex="1">
          <mxGeometry x="100" y="205" width="120" height="40" as="geometry" />
        </mxCell>
        <mxCell id="_UozKoo6z7qoIZY8arhN-1" value="Взять книгу" style="ellipse;whiteSpace=wrap;html=1;" parent="1" vertex="1">
          <mxGeometry x="480" y="235" width="120" height="30" as="geometry" />
        </mxCell>
        <mxCell id="_UozKoo6z7qoIZY8arhN-3" value="Вернуть книгу" style="ellipse;whiteSpace=wrap;html=1;" parent="1" vertex="1">
          <mxGeometry x="485" y="292.5" width="120" height="35" as="geometry" />
        </mxCell>
        <mxCell id="_UozKoo6z7qoIZY8arhN-6" value="&lt;div&gt;Добавление книги&lt;/div&gt;" style="ellipse;whiteSpace=wrap;html=1;" parent="1" vertex="1">
          <mxGeometry x="500" y="340" width="100" height="40" as="geometry" />
        </mxCell>
        <mxCell id="_UozKoo6z7qoIZY8arhN-7" value="Заполнение профиля" style="ellipse;whiteSpace=wrap;html=1;" parent="1" vertex="1">
          <mxGeometry x="245" y="230" width="105" height="40" as="geometry" />
        </mxCell>
        <mxCell id="_UozKoo6z7qoIZY8arhN-21" style="edgeStyle=orthogonalEdgeStyle;rounded=0;orthogonalLoop=1;jettySize=auto;html=1;dashed=1;fontSize=10;endArrow=open;endFill=0;" parent="1" source="_UozKoo6z7qoIZY8arhN-8" edge="1">
          <mxGeometry relative="1" as="geometry">
            <mxPoint x="160" y="250" as="targetPoint" />
          </mxGeometry>
        </mxCell>
        <mxCell id="_UozKoo6z7qoIZY8arhN-8" value="Редактирование профиля" style="ellipse;whiteSpace=wrap;html=1;" parent="1" vertex="1">
          <mxGeometry x="185" y="290" width="135" height="40" as="geometry" />
        </mxCell>
        <mxCell id="_UozKoo6z7qoIZY8arhN-12" value="" style="endArrow=none;html=1;rounded=0;" parent="1" edge="1">
          <mxGeometry width="50" height="50" relative="1" as="geometry">
            <mxPoint x="350" y="250" as="sourcePoint" />
            <mxPoint x="400" y="270" as="targetPoint" />
            <Array as="points">
              <mxPoint x="400" y="250" />
            </Array>
          </mxGeometry>
        </mxCell>
        <mxCell id="_UozKoo6z7qoIZY8arhN-13" value="" style="endArrow=none;html=1;rounded=0;" parent="1" edge="1">
          <mxGeometry width="50" height="50" relative="1" as="geometry">
            <mxPoint x="320" y="310" as="sourcePoint" />
            <mxPoint x="390" y="310" as="targetPoint" />
          </mxGeometry>
        </mxCell>
        <mxCell id="_UozKoo6z7qoIZY8arhN-14" value="" style="endArrow=none;html=1;rounded=0;" parent="1" edge="1">
          <mxGeometry width="50" height="50" relative="1" as="geometry">
            <mxPoint x="440" y="310" as="sourcePoint" />
            <mxPoint x="485" y="310" as="targetPoint" />
          </mxGeometry>
        </mxCell>
        <mxCell id="_UozKoo6z7qoIZY8arhN-15" value="" style="endArrow=none;html=1;rounded=0;" parent="1" edge="1">
          <mxGeometry width="50" height="50" relative="1" as="geometry">
            <mxPoint x="480" y="250" as="sourcePoint" />
            <mxPoint x="430" y="270" as="targetPoint" />
            <Array as="points">
              <mxPoint x="430" y="250" />
            </Array>
          </mxGeometry>
        </mxCell>
        <mxCell id="_UozKoo6z7qoIZY8arhN-22" value="&amp;lt;&amp;lt;Include&amp;gt;&amp;gt;" style="text;html=1;align=center;verticalAlign=middle;resizable=0;points=[];autosize=1;strokeColor=none;fillColor=none;fontSize=10;" parent="1" vertex="1">
          <mxGeometry x="116" y="303" width="80" height="30" as="geometry" />
        </mxCell>
        <mxCell id="_UozKoo6z7qoIZY8arhN-23" value="" style="endArrow=none;html=1;rounded=0;entryX=0;entryY=0.5;entryDx=0;entryDy=0;" parent="1" target="_UozKoo6z7qoIZY8arhN-6" edge="1">
          <mxGeometry width="50" height="50" relative="1" as="geometry">
            <mxPoint x="430" y="389.6" as="sourcePoint" />
            <mxPoint x="500" y="389.6" as="targetPoint" />
            <Array as="points">
              <mxPoint x="430" y="360" />
            </Array>
          </mxGeometry>
        </mxCell>
        <mxCell id="_UozKoo6z7qoIZY8arhN-24" value="&lt;div&gt;Принятие&amp;nbsp;&lt;/div&gt;&lt;div&gt;книги&lt;/div&gt;" style="ellipse;whiteSpace=wrap;html=1;" parent="1" vertex="1">
          <mxGeometry x="500" y="387.5" width="100" height="45" as="geometry" />
        </mxCell>
        <mxCell id="_UozKoo6z7qoIZY8arhN-25" value="" style="endArrow=none;html=1;rounded=0;" parent="1" edge="1">
          <mxGeometry width="50" height="50" relative="1" as="geometry">
            <mxPoint x="430" y="409.5" as="sourcePoint" />
            <mxPoint x="500" y="409.5" as="targetPoint" />
          </mxGeometry>
        </mxCell>
        <mxCell id="H2BleIMrabxSaI1y6BuE-3" value="&lt;div&gt;Удаление&amp;nbsp;&lt;/div&gt;&lt;div&gt;книги&lt;/div&gt;" style="ellipse;whiteSpace=wrap;html=1;" parent="1" vertex="1">
          <mxGeometry x="230" y="340" width="100" height="40" as="geometry" />
        </mxCell>
        <mxCell id="H2BleIMrabxSaI1y6BuE-4" value="" style="endArrow=none;html=1;rounded=0;entryX=0;entryY=0.5;entryDx=0;entryDy=0;" parent="1" edge="1">
          <mxGeometry width="50" height="50" relative="1" as="geometry">
            <mxPoint x="400" y="389.5999999999999" as="sourcePoint" />
            <mxPoint x="330" y="360" as="targetPoint" />
            <Array as="points">
              <mxPoint x="400" y="360" />
            </Array>
          </mxGeometry>
        </mxCell>
        <mxCell id="H2BleIMrabxSaI1y6BuE-8" value="" style="endArrow=none;html=1;rounded=0;" parent="1" edge="1">
          <mxGeometry width="50" height="50" relative="1" as="geometry">
            <mxPoint x="330" y="409.5" as="sourcePoint" />
            <mxPoint x="400" y="409.5" as="targetPoint" />
          </mxGeometry>
        </mxCell>
        <mxCell id="H2BleIMrabxSaI1y6BuE-10" value="&lt;div&gt;Выдача&amp;nbsp;&lt;/div&gt;&lt;div&gt;книги&lt;/div&gt;" style="ellipse;whiteSpace=wrap;html=1;" parent="1" vertex="1">
          <mxGeometry x="230" y="387.5" width="100" height="45" as="geometry" />
        </mxCell>
      </root>
    </mxGraphModel>
  </diagram>
</mxfile>
